<svg xmlns="http://www.w3.org/2000/svg" viewBox="0 0 24 24" width="384" height="384"><g stroke="#000" stroke-width="0.3" stroke-linecap="square" stroke-linejoin="miter"><rect x="0" y="0" width="5" height="3" fill="#ffffff" /><rect x="0" y="3" width="5" height="8" fill="#0000ff" /><rect x="0" y="11" width="5" height="8" fill="#ff0000" /><rect x="0" y="19" width="5" height="1" fill="#ffffff" /><rect x="0" y="20" width="5" height="4" fill="#ffffff" /><rect x="5" y="0" width="2" height="5" fill="#0000ff" /><rect x="7" y="0" width="4" height="5" fill="#ffffff" /><rect x="11" y="0" width="6" height="5" fill="#ffffff" /><rect x="5" y="5" width="6" height="5" fill="#ff0000" /><rect x="11" y="5" width="6" height="5" fill="#ffffff" /><rect x="5" y="10" width="10" height="14" fill="#0000ff" /><rect x="15" y="10" width="2" height="14" fill="#0000ff" /><rect x="17" y="0" width="1" height="6" fill="#ffffff" /><rect x="18" y="0" width="4" height="6" fill="#ff0000" /><rect x="22" y="0" width="2" height="6" fill="#0000ff" /><rect x="17" y="6" width="3" height="5" fill="#ffffff" /><rect x="20" y="6" width="4" height="3" fill="#ffffff" /><rect x="20" y="9" width="4" height="2" fill="#ffffff" /><rect x="17" y="11" width="7" height="1" fill="#ffffff" /><rect x="17" y="12" width="7" height="1" fill="#0000ff" /><rect x="17" y="13" width="7" height="4" fill="#ff0000" /><rect x="17" y="17" width="1" height="7" fill="#ff0000" /><rect x="18" y="17" width="4" height="7" fill="#ffffff" /><rect x="22" y="17" width="2" height="7" fill="#ffffff" /></g></svg>